<svg id="visual" viewBox="0 0 960 540" width="960" height="540" xmlns="http://www.w3.org/2000/svg" xmlns:xlink="http://www.w3.org/1999/xlink" version="1.1"><rect x="0" y="0" width="960" height="540" fill="#121833"></rect><path d="M221 0L216.7 9C212.3 18 203.7 36 191.5 54C179.3 72 163.7 90 168.7 108C173.7 126 199.3 144 206.3 162C213.3 180 201.7 198 193.2 216C184.7 234 179.3 252 172.5 270C165.7 288 157.3 306 158.8 324C160.3 342 171.7 360 183.7 378C195.7 396 208.3 414 203.2 432C198 450 175 468 168 486C161 504 170 522 174.5 531L179 540L0 540L0 531C0 522 0 504 0 486C0 468 0 450 0 432C0 414 0 396 0 378C0 360 0 342 0 324C0 306 0 288 0 270C0 252 0 234 0 216C0 198 0 180 0 162C0 144 0 126 0 108C0 90 0 72 0 54C0 36 0 18 0 9L0 0Z" fill="#0474ac"></path><path d="M119 0L124.5 9C130 18 141 36 144.7 54C148.3 72 144.7 90 145.5 108C146.3 126 151.7 144 157.2 162C162.7 180 168.3 198 165.2 216C162 234 150 252 146.3 270C142.7 288 147.3 306 144 324C140.7 342 129.3 360 132.3 378C135.3 396 152.7 414 156 432C159.3 450 148.7 468 150 486C151.3 504 164.7 522 171.3 531L178 540L0 540L0 531C0 522 0 504 0 486C0 468 0 450 0 432C0 414 0 396 0 378C0 360 0 342 0 324C0 306 0 288 0 270C0 252 0 234 0 216C0 198 0 180 0 162C0 144 0 126 0 108C0 90 0 72 0 54C0 36 0 18 0 9L0 0Z" fill="#067fbd"></path><path d="M107 0L110.5 9C114 18 121 36 123.8 54C126.7 72 125.3 90 119 108C112.7 126 101.3 144 93.7 162C86 180 82 198 83.5 216C85 234 92 252 91.5 270C91 288 83 306 86.5 324C90 342 105 360 111.7 378C118.3 396 116.7 414 114.8 432C113 450 111 468 110.3 486C109.7 504 110.3 522 110.7 531L111 540L0 540L0 531C0 522 0 504 0 486C0 468 0 450 0 432C0 414 0 396 0 378C0 360 0 342 0 324C0 306 0 288 0 270C0 252 0 234 0 216C0 198 0 180 0 162C0 144 0 126 0 108C0 90 0 72 0 54C0 36 0 18 0 9L0 0Z" fill="#098bcf"></path><path d="M38 0L42.7 9C47.3 18 56.7 36 60.8 54C65 72 64 90 59 108C54 126 45 144 44.7 162C44.3 180 52.7 198 57.7 216C62.7 234 64.3 252 61 270C57.7 288 49.3 306 46.5 324C43.7 342 46.3 360 45.7 378C45 396 41 414 43.5 432C46 450 55 468 57.7 486C60.3 504 56.7 522 54.8 531L53 540L0 540L0 531C0 522 0 504 0 486C0 468 0 450 0 432C0 414 0 396 0 378C0 360 0 342 0 324C0 306 0 288 0 270C0 252 0 234 0 216C0 198 0 180 0 162C0 144 0 126 0 108C0 90 0 72 0 54C0 36 0 18 0 9L0 0Z" fill="#0d97e0"></path></svg>