<svg id="visual" viewBox="0 0 960 540" width="960" height="540" xmlns="http://www.w3.org/2000/svg" xmlns:xlink="http://www.w3.org/1999/xlink" version="1.1"><rect x="0" y="0" width="960" height="540" fill="#1E2A47"></rect><defs><linearGradient id="grad1_0" x1="43.8%" y1="0%" x2="100%" y2="100%"><stop offset="14.444444444444446%" stop-color="#1e2a47" stop-opacity="1"></stop><stop offset="85.55555555555554%" stop-color="#1e2a47" stop-opacity="1"></stop></linearGradient></defs><defs><linearGradient id="grad2_0" x1="0%" y1="0%" x2="56.3%" y2="100%"><stop offset="14.444444444444446%" stop-color="#1e2a47" stop-opacity="1"></stop><stop offset="85.55555555555554%" stop-color="#1e2a47" stop-opacity="1"></stop></linearGradient></defs><g transform="translate(960, 0)"><path d="M0 243C-28.3 233 -56.6 222.9 -88.4 213.4C-120.2 203.9 -155.5 195 -171.8 171.8C-188.1 148.7 -185.3 111.4 -194 80.4C-202.7 49.4 -222.9 24.7 -243 0L0 0Z" fill="#0F172A"></path></g><g transform="translate(0, 540)"><path d="M0 -243C29.3 -228.1 58.7 -213.3 81.5 -196.8C104.4 -180.3 120.7 -162.2 146.4 -146.4C172 -130.5 206.9 -117 224.5 -93C242.1 -69 242.6 -34.5 243 0L0 0Z" fill="#0F172A"></path></g></svg>