<svg id="visual" viewBox="0 0 900 600" width="900" height="600" xmlns="http://www.w3.org/2000/svg" xmlns:xlink="http://www.w3.org/1999/xlink" version="1.1"><rect x="0" y="0" width="900" height="600" fill="#1E2A47"></rect><defs><linearGradient id="grad1_0" x1="33.3%" y1="0%" x2="100%" y2="100%"><stop offset="20%" stop-color="#0f172a" stop-opacity="1"></stop><stop offset="80%" stop-color="#0f172a" stop-opacity="1"></stop></linearGradient></defs><defs><linearGradient id="grad1_1" x1="33.3%" y1="0%" x2="100%" y2="100%"><stop offset="20%" stop-color="#0f172a" stop-opacity="1"></stop><stop offset="80%" stop-color="#162038" stop-opacity="1"></stop></linearGradient></defs><defs><linearGradient id="grad1_2" x1="33.3%" y1="0%" x2="100%" y2="100%"><stop offset="20%" stop-color="#1e2a47" stop-opacity="1"></stop><stop offset="80%" stop-color="#162038" stop-opacity="1"></stop></linearGradient></defs><defs><linearGradient id="grad2_0" x1="0%" y1="0%" x2="66.7%" y2="100%"><stop offset="20%" stop-color="#0f172a" stop-opacity="1"></stop><stop offset="80%" stop-color="#0f172a" stop-opacity="1"></stop></linearGradient></defs><defs><linearGradient id="grad2_1" x1="0%" y1="0%" x2="66.7%" y2="100%"><stop offset="20%" stop-color="#162038" stop-opacity="1"></stop><stop offset="80%" stop-color="#0f172a" stop-opacity="1"></stop></linearGradient></defs><defs><linearGradient id="grad2_2" x1="0%" y1="0%" x2="66.7%" y2="100%"><stop offset="20%" stop-color="#162038" stop-opacity="1"></stop><stop offset="80%" stop-color="#1e2a47" stop-opacity="1"></stop></linearGradient></defs><g transform="translate(900, 0)"><path d="M0 486.7C-56.1 462.4 -112.2 438.1 -173.4 418.5C-234.5 398.9 -300.6 384.1 -344.2 344.2C-387.7 304.2 -408.7 239.1 -428.7 177.6C-448.7 116 -467.7 58 -486.7 0L0 0Z" fill="#1a2540"></path><path d="M0 324.5C-37.4 308.3 -74.8 292.1 -115.6 279C-156.3 266 -200.4 256.1 -229.5 229.5C-258.5 202.8 -272.5 159.4 -285.8 118.4C-299.1 77.3 -311.8 38.7 -324.5 0L0 0Z" fill="#131c31"></path><path d="M0 162.2C-18.7 154.1 -37.4 146 -57.8 139.5C-78.2 133 -100.2 128 -114.7 114.7C-129.2 101.4 -136.2 79.7 -142.9 59.2C-149.6 38.7 -155.9 19.3 -162.2 0L0 0Z" fill="#0f172a"></path></g><g transform="translate(0, 600)"><path d="M0 -486.7C43.8 -434.4 87.7 -382 151.9 -366.8C216.2 -351.6 300.8 -373.5 344.2 -344.2C387.5 -314.9 389.6 -234.3 406.5 -168.4C423.4 -102.5 455.1 -51.2 486.7 0L0 0Z" fill="#1a2540"></path><path d="M0 -324.5C29.2 -289.6 58.5 -254.7 101.3 -244.5C144.1 -234.4 200.5 -249 229.5 -229.5C258.4 -209.9 259.8 -156.2 271 -112.3C282.3 -68.3 303.4 -34.2 324.5 0L0 0Z" fill="#131c31"></path><path d="M0 -162.2C14.6 -144.8 29.2 -127.3 50.6 -122.3C72.1 -117.2 100.3 -124.5 114.7 -114.7C129.2 -105 129.9 -78.1 135.5 -56.1C141.1 -34.2 151.7 -17.1 162.2 0L0 0Z" fill="#0f172a"></path></g></svg>