<svg id="visual" viewBox="0 0 900 600" width="900" height="600" xmlns="http://www.w3.org/2000/svg" xmlns:xlink="http://www.w3.org/1999/xlink" version="1.1"><path d="M0 109L82 109L82 91L164 91L164 85L245 85L245 103L327 103L327 79L409 79L409 67L491 67L491 85L573 85L573 67L655 67L655 91L736 91L736 103L818 103L818 97L900 97L900 91L900 0L900 0L818 0L818 0L736 0L736 0L655 0L655 0L573 0L573 0L491 0L491 0L409 0L409 0L327 0L327 0L245 0L245 0L164 0L164 0L82 0L82 0L0 0Z" fill="#1e2a47"></path><path d="M0 199L82 199L82 169L164 169L164 163L245 163L245 193L327 193L327 187L409 187L409 193L491 193L491 217L573 217L573 175L655 175L655 175L736 175L736 217L818 217L818 205L900 205L900 199L900 89L900 95L818 95L818 101L736 101L736 89L655 89L655 65L573 65L573 83L491 83L491 65L409 65L409 77L327 77L327 101L245 101L245 83L164 83L164 89L82 89L82 107L0 107Z" fill="#1a253f"></path><path d="M0 403L82 403L82 367L164 367L164 325L245 325L245 355L327 355L327 361L409 361L409 349L491 349L491 355L573 355L573 391L655 391L655 349L736 349L736 325L818 325L818 367L900 367L900 391L900 197L900 203L818 203L818 215L736 215L736 173L655 173L655 173L573 173L573 215L491 215L491 191L409 191L409 185L327 185L327 191L245 191L245 161L164 161L164 167L82 167L82 197L0 197Z" fill="#162038"></path><path d="M0 475L82 475L82 457L164 457L164 391L245 391L245 409L327 409L327 445L409 445L409 409L491 409L491 403L573 403L573 469L655 469L655 397L736 397L736 409L818 409L818 451L900 451L900 481L900 389L900 365L818 365L818 323L736 323L736 347L655 347L655 389L573 389L573 353L491 353L491 347L409 347L409 359L327 359L327 353L245 353L245 323L164 323L164 365L82 365L82 401L0 401Z" fill="#121b31"></path><path d="M0 601L82 601L82 601L164 601L164 601L245 601L245 601L327 601L327 601L409 601L409 601L491 601L491 601L573 601L573 601L655 601L655 601L736 601L736 601L818 601L818 601L900 601L900 601L900 479L900 449L818 449L818 407L736 407L736 395L655 395L655 467L573 467L573 401L491 401L491 407L409 407L409 443L327 443L327 407L245 407L245 389L164 389L164 455L82 455L82 473L0 473Z" fill="#0f172a"></path></svg>