<svg id="visual" viewBox="0 0 960 540" width="960" height="540" xmlns="http://www.w3.org/2000/svg" xmlns:xlink="http://www.w3.org/1999/xlink" version="1.1"><rect x="0" y="0" width="960" height="540" fill="#121833"></rect><path d="M741 540L745.3 531C749.7 522 758.3 504 770.5 486C782.7 468 798.3 450 793.3 432C788.3 414 762.7 396 755.7 378C748.7 360 760.3 342 768.8 324C777.3 306 782.7 288 789.5 270C796.3 252 804.7 234 803.2 216C801.7 198 790.3 180 778.3 162C766.3 144 753.7 126 758.8 108C764 90 787 72 794 54C801 36 792 18 787.5 9L783 0L960 0L960 9C960 18 960 36 960 54C960 72 960 90 960 108C960 126 960 144 960 162C960 180 960 198 960 216C960 234 960 252 960 270C960 288 960 306 960 324C960 342 960 360 960 378C960 396 960 414 960 432C960 450 960 468 960 486C960 504 960 522 960 531L960 540Z" fill="#0474ac"></path><path d="M843 540L837.5 531C832 522 821 504 817.3 486C813.7 468 817.3 450 816.5 432C815.7 414 810.3 396 804.8 378C799.3 360 793.7 342 796.8 324C800 306 812 288 815.7 270C819.3 252 814.7 234 818 216C821.3 198 832.7 180 829.7 162C826.7 144 809.3 126 806 108C802.7 90 813.3 72 812 54C810.7 36 797.3 18 790.7 9L784 0L960 0L960 9C960 18 960 36 960 54C960 72 960 90 960 108C960 126 960 144 960 162C960 180 960 198 960 216C960 234 960 252 960 270C960 288 960 306 960 324C960 342 960 360 960 378C960 396 960 414 960 432C960 450 960 468 960 486C960 504 960 522 960 531L960 540Z" fill="#067fbd"></path><path d="M855 540L851.5 531C848 522 841 504 838.2 486C835.3 468 836.7 450 843 432C849.3 414 860.7 396 868.3 378C876 360 880 342 878.5 324C877 306 870 288 870.5 270C871 252 879 234 875.5 216C872 198 857 180 850.3 162C843.7 144 845.3 126 847.2 108C849 90 851 72 851.7 54C852.3 36 851.7 18 851.3 9L851 0L960 0L960 9C960 18 960 36 960 54C960 72 960 90 960 108C960 126 960 144 960 162C960 180 960 198 960 216C960 234 960 252 960 270C960 288 960 306 960 324C960 342 960 360 960 378C960 396 960 414 960 432C960 450 960 468 960 486C960 504 960 522 960 531L960 540Z" fill="#098bcf"></path><path d="M924 540L919.3 531C914.7 522 905.3 504 901.2 486C897 468 898 450 903 432C908 414 917 396 917.3 378C917.7 360 909.3 342 904.3 324C899.3 306 897.7 288 901 270C904.3 252 912.7 234 915.5 216C918.3 198 915.7 180 916.3 162C917 144 921 126 918.5 108C916 90 907 72 904.3 54C901.7 36 905.3 18 907.2 9L909 0L960 0L960 9C960 18 960 36 960 54C960 72 960 90 960 108C960 126 960 144 960 162C960 180 960 198 960 216C960 234 960 252 960 270C960 288 960 306 960 324C960 342 960 360 960 378C960 396 960 414 960 432C960 450 960 468 960 486C960 504 960 522 960 531L960 540Z" fill="#0d97e0"></path></svg>