<svg id="visual" viewBox="0 0 900 600" width="900" height="600" xmlns="http://www.w3.org/2000/svg" xmlns:xlink="http://www.w3.org/1999/xlink" version="1.1"><path d="M0 175L64 139L129 121L193 187L257 211L321 211L386 193L450 157L514 223L579 151L643 121L707 127L771 289L836 229L900 157L900 0L836 0L771 0L707 0L643 0L579 0L514 0L450 0L386 0L321 0L257 0L193 0L129 0L64 0L0 0Z" fill="#121833"></path><path d="M0 391L64 373L129 373L193 373L257 379L321 409L386 337L450 391L514 415L579 367L643 403L707 343L771 433L836 403L900 361L900 155L836 227L771 287L707 125L643 119L579 149L514 221L450 155L386 191L321 209L257 209L193 185L129 119L64 137L0 173Z" fill="#121838"></path><path d="M0 469L64 541L129 487L193 469L257 469L321 481L386 475L450 511L514 487L579 487L643 523L707 517L771 505L836 535L900 529L900 359L836 401L771 431L707 341L643 401L579 365L514 413L450 389L386 335L321 407L257 377L193 371L129 371L64 371L0 389Z" fill="#12183e"></path><path d="M0 601L64 601L129 601L193 601L257 601L321 601L386 601L450 601L514 601L579 601L643 601L707 601L771 601L836 601L900 601L900 527L836 533L771 503L707 515L643 521L579 485L514 485L450 509L386 473L321 479L257 467L193 467L129 485L64 539L0 467Z" fill="#121843"></path></svg>