<svg id="visual" viewBox="0 0 900 600" width="900" height="600" xmlns="http://www.w3.org/2000/svg" xmlns:xlink="http://www.w3.org/1999/xlink" version="1.1"><rect x="0" y="0" width="900" height="600" fill="#081a28"></rect><path d="M328 600L502 600L502 554L453 554L453 508L334 508L334 462L302 462L302 415L422 415L422 369L371 369L371 323L468 323L468 277L363 277L363 231L340 231L340 185L301 185L301 138L393 138L393 92L436 92L436 46L397 46L397 0L900 0L900 46L900 46L900 92L900 92L900 138L900 138L900 185L900 185L900 231L900 231L900 277L900 277L900 323L900 323L900 369L900 369L900 415L900 415L900 462L900 462L900 508L900 508L900 554L900 554L900 600L900 600Z" fill="#297ea6"></path><path d="M478 600L393 600L393 554L576 554L576 508L525 508L525 462L473 462L473 415L587 415L587 369L576 369L576 323L412 323L412 277L484 277L484 231L527 231L527 185L582 185L582 138L525 138L525 92L404 92L404 46L404 46L404 0L900 0L900 46L900 46L900 92L900 92L900 138L900 138L900 185L900 185L900 231L900 231L900 277L900 277L900 323L900 323L900 369L900 369L900 415L900 415L900 462L900 462L900 508L900 508L900 554L900 554L900 600L900 600Z" fill="#27749a"></path><path d="M487 600L513 600L513 554L552 554L552 508L658 508L658 462L590 462L590 415L571 415L571 369L600 369L600 323L561 323L561 277L650 277L650 231L612 231L612 185L642 185L642 138L546 138L546 92L579 92L579 46L652 46L652 0L900 0L900 46L900 46L900 92L900 92L900 138L900 138L900 185L900 185L900 231L900 231L900 277L900 277L900 323L900 323L900 369L900 369L900 415L900 415L900 462L900 462L900 508L900 508L900 554L900 554L900 600L900 600Z" fill="#256a8e"></path><path d="M576 600L708 600L708 554L619 554L619 508L724 508L724 462L583 462L583 415L563 415L563 369L687 369L687 323L630 323L630 277L677 277L677 231L576 231L576 185L585 185L585 138L680 138L680 92L719 92L719 46L586 46L586 0L900 0L900 46L900 46L900 92L900 92L900 138L900 138L900 185L900 185L900 231L900 231L900 277L900 277L900 323L900 323L900 369L900 369L900 415L900 415L900 462L900 462L900 508L900 508L900 554L900 554L900 600L900 600Z" fill="#236082"></path><path d="M652 600L799 600L799 554L793 554L793 508L693 508L693 462L767 462L767 415L790 415L790 369L737 369L737 323L701 323L701 277L677 277L677 231L700 231L700 185L745 185L745 138L766 138L766 92L752 92L752 46L771 46L771 0L900 0L900 46L900 46L900 92L900 92L900 138L900 138L900 185L900 185L900 231L900 231L900 277L900 277L900 323L900 323L900 369L900 369L900 415L900 415L900 462L900 462L900 508L900 508L900 554L900 554L900 600L900 600Z" fill="#205776"></path><path d="M784 600L874 600L874 554L852 554L852 508L812 508L812 462L768 462L768 415L791 415L791 369L779 369L779 323L865 323L865 277L845 277L845 231L762 231L762 185L797 185L797 138L741 138L741 92L836 92L836 46L744 46L744 0L900 0L900 46L900 46L900 92L900 92L900 138L900 138L900 185L900 185L900 231L900 231L900 277L900 277L900 323L900 323L900 369L900 369L900 415L900 415L900 462L900 462L900 508L900 508L900 554L900 554L900 600L900 600Z" fill="#1d4e6b"></path></svg>