<svg id="visual" viewBox="0 0 900 600" width="900" height="600" xmlns="http://www.w3.org/2000/svg" xmlns:xlink="http://www.w3.org/1999/xlink" version="1.1"><rect x="0" y="0" width="900" height="600" fill="#081a28"></rect><path d="M574 0L400 0L400 46L449 46L449 92L568 92L568 138L600 138L600 185L480 185L480 231L531 231L531 277L434 277L434 323L539 323L539 369L562 369L562 415L601 415L601 462L509 462L509 508L466 508L466 554L505 554L505 600L0 600L0 554L0 554L0 508L0 508L0 462L0 462L0 415L0 415L0 369L0 369L0 323L0 323L0 277L0 277L0 231L0 231L0 185L0 185L0 138L0 138L0 92L0 92L0 46L0 46L0 0L0 0Z" fill="#1d4e6b"></path><path d="M424 0L509 0L509 46L326 46L326 92L377 92L377 138L429 138L429 185L315 185L315 231L326 231L326 277L490 277L490 323L418 323L418 369L375 369L375 415L320 415L320 462L377 462L377 508L498 508L498 554L498 554L498 600L0 600L0 554L0 554L0 508L0 508L0 462L0 462L0 415L0 415L0 369L0 369L0 323L0 323L0 277L0 277L0 231L0 231L0 185L0 185L0 138L0 138L0 92L0 92L0 46L0 46L0 0L0 0Z" fill="#246588"></path><path d="M415 0L389 0L389 46L350 46L350 92L244 92L244 138L312 138L312 185L331 185L331 231L302 231L302 277L341 277L341 323L252 323L252 369L290 369L290 415L260 415L260 462L356 462L356 508L323 508L323 554L250 554L250 600L0 600L0 554L0 554L0 508L0 508L0 462L0 462L0 415L0 415L0 369L0 369L0 323L0 323L0 277L0 277L0 231L0 231L0 185L0 185L0 138L0 138L0 92L0 92L0 46L0 46L0 0L0 0Z" fill="#297ea6"></path><path d="M326 0L194 0L194 46L283 46L283 92L178 92L178 138L319 138L319 185L339 185L339 231L215 231L215 277L272 277L272 323L225 323L225 369L326 369L326 415L317 415L317 462L222 462L222 508L183 508L183 554L316 554L316 600L0 600L0 554L0 554L0 508L0 508L0 462L0 462L0 415L0 415L0 369L0 369L0 323L0 323L0 277L0 277L0 231L0 231L0 185L0 185L0 138L0 138L0 92L0 92L0 46L0 46L0 0L0 0Z" fill="#297ea6"></path><path d="M250 0L103 0L103 46L109 46L109 92L209 92L209 138L135 138L135 185L112 185L112 231L165 231L165 277L201 277L201 323L225 323L225 369L202 369L202 415L157 415L157 462L136 462L136 508L150 508L150 554L131 554L131 600L0 600L0 554L0 554L0 508L0 508L0 462L0 462L0 415L0 415L0 369L0 369L0 323L0 323L0 277L0 277L0 231L0 231L0 185L0 185L0 138L0 138L0 92L0 92L0 46L0 46L0 0L0 0Z" fill="#246588"></path><path d="M118 0L28 0L28 46L50 46L50 92L90 92L90 138L134 138L134 185L111 185L111 231L123 231L123 277L37 277L37 323L57 323L57 369L140 369L140 415L105 415L105 462L161 462L161 508L66 508L66 554L158 554L158 600L0 600L0 554L0 554L0 508L0 508L0 462L0 462L0 415L0 415L0 369L0 369L0 323L0 323L0 277L0 277L0 231L0 231L0 185L0 185L0 138L0 138L0 92L0 92L0 46L0 46L0 0L0 0Z" fill="#1d4e6b"></path></svg>