<?xml version="1.0" standalone="no"?><svg xmlns="http://www.w3.org/2000/svg" viewBox="0 0 1440 320"><path fill="#0099ff" fill-opacity="1" d="M0,96L6.2,112C12.3,128,25,160,37,160C49.2,160,62,128,74,122.7C86.2,117,98,139,111,144C123.1,149,135,139,148,160C160,181,172,235,185,218.7C196.9,203,209,117,222,101.3C233.8,85,246,139,258,149.3C270.8,160,283,128,295,144C307.7,160,320,224,332,213.3C344.6,203,357,117,369,90.7C381.5,64,394,96,406,106.7C418.5,117,431,107,443,85.3C455.4,64,468,32,480,16C492.3,0,505,0,517,21.3C529.2,43,542,85,554,85.3C566.2,85,578,43,591,26.7C603.1,11,615,21,628,32C640,43,652,53,665,64C676.9,75,689,85,702,101.3C713.8,117,726,139,738,144C750.8,149,763,139,775,149.3C787.7,160,800,192,812,213.3C824.6,235,837,245,849,213.3C861.5,181,874,107,886,101.3C898.5,96,911,160,923,192C935.4,224,948,224,960,202.7C972.3,181,985,139,997,149.3C1009.2,160,1022,224,1034,250.7C1046.2,277,1058,267,1071,240C1083.1,213,1095,171,1108,138.7C1120,107,1132,85,1145,69.3C1156.9,53,1169,43,1182,32C1193.8,21,1206,11,1218,5.3C1230.8,0,1243,0,1255,16C1267.7,32,1280,64,1292,90.7C1304.6,117,1317,139,1329,128C1341.5,117,1354,75,1366,58.7C1378.5,43,1391,53,1403,64C1415.4,75,1428,85,1434,90.7L1440,96L1440,0L1433.8,0C1427.7,0,1415,0,1403,0C1390.8,0,1378,0,1366,0C1353.8,0,1342,0,1329,0C1316.9,0,1305,0,1292,0C1280,0,1268,0,1255,0C1243.1,0,1231,0,1218,0C1206.2,0,1194,0,1182,0C1169.2,0,1157,0,1145,0C1132.3,0,1120,0,1108,0C1095.4,0,1083,0,1071,0C1058.5,0,1046,0,1034,0C1021.5,0,1009,0,997,0C984.6,0,972,0,960,0C947.7,0,935,0,923,0C910.8,0,898,0,886,0C873.8,0,862,0,849,0C836.9,0,825,0,812,0C800,0,788,0,775,0C763.1,0,751,0,738,0C726.2,0,714,0,702,0C689.2,0,677,0,665,0C652.3,0,640,0,628,0C615.4,0,603,0,591,0C578.5,0,566,0,554,0C541.5,0,529,0,517,0C504.6,0,492,0,480,0C467.7,0,455,0,443,0C430.8,0,418,0,406,0C393.8,0,382,0,369,0C356.9,0,345,0,332,0C320,0,308,0,295,0C283.1,0,271,0,258,0C246.2,0,234,0,222,0C209.2,0,197,0,185,0C172.3,0,160,0,148,0C135.4,0,123,0,111,0C98.5,0,86,0,74,0C61.5,0,49,0,37,0C24.6,0,12,0,6,0L0,0Z"></path></svg>