<svg id="visual" viewBox="0 0 900 600" width="900" height="600" xmlns="http://www.w3.org/2000/svg" xmlns:xlink="http://www.w3.org/1999/xlink" version="1.1"><path d="M0 241L13.7 233C27.3 225 54.7 209 82 208C109.3 207 136.7 221 163.8 219C191 217 218 199 245.2 197C272.3 195 299.7 209 327 196C354.3 183 381.7 143 409 131C436.3 119 463.7 135 491 140C518.3 145 545.7 139 573 144C600.3 149 627.7 165 654.8 172C682 179 709 177 736.2 183C763.3 189 790.7 203 818 191C845.3 179 872.7 141 886.3 122L900 103L900 0L886.3 0C872.7 0 845.3 0 818 0C790.7 0 763.3 0 736.2 0C709 0 682 0 654.8 0C627.7 0 600.3 0 573 0C545.7 0 518.3 0 491 0C463.7 0 436.3 0 409 0C381.7 0 354.3 0 327 0C299.7 0 272.3 0 245.2 0C218 0 191 0 163.8 0C136.7 0 109.3 0 82 0C54.7 0 27.3 0 13.7 0L0 0Z" fill="#263559"></path><path d="M0 343L13.7 328C27.3 313 54.7 283 82 281C109.3 279 136.7 305 163.8 312C191 319 218 307 245.2 310C272.3 313 299.7 331 327 308C354.3 285 381.7 221 409 207C436.3 193 463.7 229 491 243C518.3 257 545.7 249 573 260C600.3 271 627.7 301 654.8 304C682 307 709 283 736.2 289C763.3 295 790.7 331 818 315C845.3 299 872.7 231 886.3 197L900 163L900 101L886.3 120C872.7 139 845.3 177 818 189C790.7 201 763.3 187 736.2 181C709 175 682 177 654.8 170C627.7 163 600.3 147 573 142C545.7 137 518.3 143 491 138C463.7 133 436.3 117 409 129C381.7 141 354.3 181 327 194C299.7 207 272.3 193 245.2 195C218 197 191 215 163.8 217C136.7 219 109.3 205 82 206C54.7 207 27.3 223 13.7 231L0 239Z" fill="#1a2641"></path><path d="M0 487L13.7 477C27.3 467 54.7 447 82 442C109.3 437 136.7 447 163.8 456C191 465 218 473 245.2 473C272.3 473 299.7 465 327 457C354.3 449 381.7 441 409 448C436.3 455 463.7 477 491 470C518.3 463 545.7 427 573 418C600.3 409 627.7 427 654.8 441C682 455 709 465 736.2 468C763.3 471 790.7 467 818 455C845.3 443 872.7 423 886.3 413L900 403L900 161L886.3 195C872.7 229 845.3 297 818 313C790.7 329 763.3 293 736.2 287C709 281 682 305 654.8 302C627.7 299 600.3 269 573 258C545.7 247 518.3 255 491 241C463.7 227 436.3 191 409 205C381.7 219 354.3 283 327 306C299.7 329 272.3 311 245.2 308C218 305 191 317 163.8 310C136.7 303 109.3 277 82 279C54.7 281 27.3 311 13.7 326L0 341Z" fill="#0f172a"></path><path d="M0 541L13.7 533C27.3 525 54.7 509 82 511C109.3 513 136.7 533 163.8 542C191 551 218 549 245.2 540C272.3 531 299.7 515 327 502C354.3 489 381.7 479 409 485C436.3 491 463.7 513 491 517C518.3 521 545.7 507 573 499C600.3 491 627.7 489 654.8 497C682 505 709 523 736.2 528C763.3 533 790.7 525 818 518C845.3 511 872.7 505 886.3 502L900 499L900 401L886.3 411C872.7 421 845.3 441 818 453C790.7 465 763.3 469 736.2 466C709 463 682 453 654.8 439C627.7 425 600.3 407 573 416C545.7 425 518.3 461 491 468C463.7 475 436.3 453 409 446C381.7 439 354.3 447 327 455C299.7 463 272.3 471 245.2 471C218 471 191 463 163.8 454C136.7 445 109.3 435 82 440C54.7 445 27.3 465 13.7 475L0 485Z" fill="#0e1525"></path><path d="M0 601L13.7 601C27.3 601 54.7 601 82 601C109.3 601 136.7 601 163.8 601C191 601 218 601 245.2 601C272.3 601 299.7 601 327 601C354.3 601 381.7 601 409 601C436.3 601 463.7 601 491 601C518.3 601 545.7 601 573 601C600.3 601 627.7 601 654.8 601C682 601 709 601 736.2 601C763.3 601 790.7 601 818 601C845.3 601 872.7 601 886.3 601L900 601L900 497L886.3 500C872.7 503 845.3 509 818 516C790.7 523 763.3 531 736.2 526C709 521 682 503 654.8 495C627.7 487 600.3 489 573 497C545.7 505 518.3 519 491 515C463.7 511 436.3 489 409 483C381.7 477 354.3 487 327 500C299.7 513 272.3 529 245.2 538C218 547 191 549 163.8 540C136.7 531 109.3 511 82 509C54.7 507 27.3 523 13.7 531L0 539Z" fill="#0d1320"></path></svg>