<svg id="visual" viewBox="0 0 900 600" width="900" height="600" xmlns="http://www.w3.org/2000/svg" xmlns:xlink="http://www.w3.org/1999/xlink" version="1.1"><g stroke-width="1" stroke-linejoin="bevel"><path d="M462 315L515 374L580 292Z" fill="#081a28" stroke="#081a28"></path><path d="M515 374L561 418L580 292Z" fill="#112e42" stroke="#112e42"></path><path d="M696 267L597 226L580 292Z" fill="#1d4e6b" stroke="#1d4e6b"></path><path d="M580 292L529 170L462 315Z" fill="#246688" stroke="#246688"></path><path d="M597 226L529 170L580 292Z" fill="#112e42" stroke="#112e42"></path><path d="M529 170L382 239L462 315Z" fill="#00101c" stroke="#00101c"></path><path d="M462 315L367 397L515 374Z" fill="#297ea6" stroke="#297ea6"></path><path d="M382 239L362 320L462 315Z" fill="#297ea6" stroke="#297ea6"></path><path d="M515 374L467 516L561 418Z" fill="#112e42" stroke="#112e42"></path><path d="M362 320L367 397L462 315Z" fill="#00101c" stroke="#00101c"></path><path d="M719 391L696 267L580 292Z" fill="#081a28" stroke="#081a28"></path><path d="M597 226L614 127L529 170Z" fill="#0c2435" stroke="#0c2435"></path><path d="M696 267L671 192L597 226Z" fill="#19435d" stroke="#19435d"></path><path d="M467 516L583 496L561 418Z" fill="#277297" stroke="#277297"></path><path d="M561 418L719 391L580 292Z" fill="#205a7a" stroke="#205a7a"></path><path d="M614 127L528 117L529 170Z" fill="#00101c" stroke="#00101c"></path><path d="M401 73L328 136L382 239Z" fill="#205a7a" stroke="#205a7a"></path><path d="M671 192L614 127L597 226Z" fill="#1d4e6b" stroke="#1d4e6b"></path><path d="M367 397L467 516L515 374Z" fill="#081a28" stroke="#081a28"></path><path d="M583 496L719 391L561 418Z" fill="#15384f" stroke="#15384f"></path><path d="M277 171L315 267L382 239Z" fill="#205a7a" stroke="#205a7a"></path><path d="M382 239L315 267L362 320Z" fill="#246688" stroke="#246688"></path><path d="M362 320L292 376L367 397Z" fill="#205a7a" stroke="#205a7a"></path><path d="M315 267L292 376L362 320Z" fill="#081a28" stroke="#081a28"></path><path d="M367 397L368 539L467 516Z" fill="#246688" stroke="#246688"></path><path d="M719 391L784 320L696 267Z" fill="#081a28" stroke="#081a28"></path><path d="M696 267L760 198L671 192Z" fill="#00101c" stroke="#00101c"></path><path d="M671 192L734 127L614 127Z" fill="#0c2435" stroke="#0c2435"></path><path d="M401 73L382 239L529 170Z" fill="#19435d" stroke="#19435d"></path><path d="M315 267L182 322L292 376Z" fill="#205a7a" stroke="#205a7a"></path><path d="M784 320L760 198L696 267Z" fill="#19435d" stroke="#19435d"></path><path d="M528 117L401 73L529 170Z" fill="#277297" stroke="#277297"></path><path d="M494 0L401 73L528 117Z" fill="#246688" stroke="#246688"></path><path d="M322 504L368 539L367 397Z" fill="#205a7a" stroke="#205a7a"></path><path d="M591 600L678 539L583 496Z" fill="#0c2435" stroke="#0c2435"></path><path d="M583 496L678 539L719 391Z" fill="#19435d" stroke="#19435d"></path><path d="M719 391L797 394L784 320Z" fill="#1d4e6b" stroke="#1d4e6b"></path><path d="M591 600L583 496L467 516Z" fill="#1d4e6b" stroke="#1d4e6b"></path><path d="M292 376L322 504L367 397Z" fill="#205a7a" stroke="#205a7a"></path><path d="M760 198L734 127L671 192Z" fill="#1d4e6b" stroke="#1d4e6b"></path><path d="M638 0L494 0L528 117Z" fill="#205a7a" stroke="#205a7a"></path><path d="M190 135L277 171L328 136Z" fill="#112e42" stroke="#112e42"></path><path d="M328 136L277 171L382 239Z" fill="#081a28" stroke="#081a28"></path><path d="M763 469L797 394L719 391Z" fill="#1d4e6b" stroke="#1d4e6b"></path><path d="M678 539L763 469L719 391Z" fill="#297ea6" stroke="#297ea6"></path><path d="M368 539L466 600L467 516Z" fill="#15384f" stroke="#15384f"></path><path d="M466 600L591 600L467 516Z" fill="#277297" stroke="#277297"></path><path d="M638 0L528 117L614 127Z" fill="#112e42" stroke="#112e42"></path><path d="M591 600L676 600L678 539Z" fill="#112e42" stroke="#112e42"></path><path d="M678 539L817 600L763 469Z" fill="#277297" stroke="#277297"></path><path d="M494 0L435 0L401 73Z" fill="#15384f" stroke="#15384f"></path><path d="M401 73L326 0L328 136Z" fill="#19435d" stroke="#19435d"></path><path d="M368 539L366 600L466 600Z" fill="#205a7a" stroke="#205a7a"></path><path d="M279 600L366 600L368 539Z" fill="#246688" stroke="#246688"></path><path d="M760 198L781 112L734 127Z" fill="#081a28" stroke="#081a28"></path><path d="M697 0L638 0L614 127Z" fill="#297ea6" stroke="#297ea6"></path><path d="M900 187L781 112L760 198Z" fill="#277297" stroke="#277297"></path><path d="M900 187L760 198L784 320Z" fill="#19435d" stroke="#19435d"></path><path d="M697 0L614 127L734 127Z" fill="#246688" stroke="#246688"></path><path d="M176 218L182 322L315 267Z" fill="#00101c" stroke="#00101c"></path><path d="M292 376L199 504L322 504Z" fill="#081a28" stroke="#081a28"></path><path d="M322 504L279 600L368 539Z" fill="#246688" stroke="#246688"></path><path d="M775 0L697 0L734 127Z" fill="#297ea6" stroke="#297ea6"></path><path d="M190 135L176 218L277 171Z" fill="#246688" stroke="#246688"></path><path d="M277 171L176 218L315 267Z" fill="#297ea6" stroke="#297ea6"></path><path d="M435 0L326 0L401 73Z" fill="#19435d" stroke="#19435d"></path><path d="M164 427L199 504L292 376Z" fill="#205a7a" stroke="#205a7a"></path><path d="M199 504L279 600L322 504Z" fill="#205a7a" stroke="#205a7a"></path><path d="M182 322L164 427L292 376Z" fill="#297ea6" stroke="#297ea6"></path><path d="M114 368L164 427L182 322Z" fill="#205a7a" stroke="#205a7a"></path><path d="M900 374L784 320L797 394Z" fill="#297ea6" stroke="#297ea6"></path><path d="M900 374L900 315L784 320Z" fill="#297ea6" stroke="#297ea6"></path><path d="M900 374L797 394L900 504Z" fill="#15384f" stroke="#15384f"></path><path d="M326 0L190 135L328 136Z" fill="#1d4e6b" stroke="#1d4e6b"></path><path d="M900 504L797 394L763 469Z" fill="#112e42" stroke="#112e42"></path><path d="M900 315L900 187L784 320Z" fill="#1d4e6b" stroke="#1d4e6b"></path><path d="M781 112L775 0L734 127Z" fill="#1d4e6b" stroke="#1d4e6b"></path><path d="M900 0L775 0L781 112Z" fill="#277297" stroke="#277297"></path><path d="M676 600L817 600L678 539Z" fill="#15384f" stroke="#15384f"></path><path d="M71 316L114 368L182 322Z" fill="#297ea6" stroke="#297ea6"></path><path d="M110 600L204 600L199 504Z" fill="#112e42" stroke="#112e42"></path><path d="M71 316L182 322L176 218Z" fill="#081a28" stroke="#081a28"></path><path d="M900 187L900 139L781 112Z" fill="#112e42" stroke="#112e42"></path><path d="M817 600L900 504L763 469Z" fill="#081a28" stroke="#081a28"></path><path d="M166 0L138 136L190 135Z" fill="#277297" stroke="#277297"></path><path d="M190 135L138 136L176 218Z" fill="#1d4e6b" stroke="#1d4e6b"></path><path d="M199 504L204 600L279 600Z" fill="#00101c" stroke="#00101c"></path><path d="M96 512L199 504L164 427Z" fill="#112e42" stroke="#112e42"></path><path d="M89 179L71 316L176 218Z" fill="#297ea6" stroke="#297ea6"></path><path d="M114 368L96 512L164 427Z" fill="#0c2435" stroke="#0c2435"></path><path d="M138 136L89 179L176 218Z" fill="#00101c" stroke="#00101c"></path><path d="M0 384L96 512L114 368Z" fill="#081a28" stroke="#081a28"></path><path d="M817 600L900 600L900 504Z" fill="#00101c" stroke="#00101c"></path><path d="M326 0L166 0L190 135Z" fill="#15384f" stroke="#15384f"></path><path d="M0 129L0 163L89 179Z" fill="#00101c" stroke="#00101c"></path><path d="M900 139L900 0L781 112Z" fill="#081a28" stroke="#081a28"></path><path d="M96 512L110 600L199 504Z" fill="#277297" stroke="#277297"></path><path d="M166 0L107 0L138 136Z" fill="#277297" stroke="#277297"></path><path d="M89 179L0 315L71 316Z" fill="#0c2435" stroke="#0c2435"></path><path d="M71 316L0 384L114 368Z" fill="#1d4e6b" stroke="#1d4e6b"></path><path d="M96 512L0 600L110 600Z" fill="#00101c" stroke="#00101c"></path><path d="M0 163L0 315L89 179Z" fill="#112e42" stroke="#112e42"></path><path d="M0 315L0 384L71 316Z" fill="#112e42" stroke="#112e42"></path><path d="M0 129L89 179L138 136Z" fill="#19435d" stroke="#19435d"></path><path d="M0 384L0 490L96 512Z" fill="#297ea6" stroke="#297ea6"></path><path d="M107 0L0 129L138 136Z" fill="#00101c" stroke="#00101c"></path><path d="M0 490L0 600L96 512Z" fill="#0c2435" stroke="#0c2435"></path><path d="M107 0L0 0L0 129Z" fill="#277297" stroke="#277297"></path></g></svg>