<svg id="visual" viewBox="0 0 960 540" width="960" height="540" xmlns="http://www.w3.org/2000/svg" xmlns:xlink="http://www.w3.org/1999/xlink" version="1.1"><rect width="960" height="540" fill="#121833"></rect><g><g transform="translate(799 353)"><path d="M0 -42.1L36.4 -21L36.4 21L0 42.1L-36.4 21L-36.4 -21Z" fill="none" stroke="#297EA6" stroke-width="2"></path></g><g transform="translate(166 491)"><path d="M0 -22L19.1 -11L19.1 11L0 22L-19.1 11L-19.1 -11Z" fill="none" stroke="#297EA6" stroke-width="2"></path></g><g transform="translate(358 502)"><path d="M0 -35L30.3 -17.5L30.3 17.5L0 35L-30.3 17.5L-30.3 -17.5Z" fill="none" stroke="#297EA6" stroke-width="2"></path></g><g transform="translate(941 108)"><path d="M0 -34L29.4 -17L29.4 17L0 34L-29.4 17L-29.4 -17Z" fill="none" stroke="#297EA6" stroke-width="2"></path></g><g transform="translate(513 458)"><path d="M0 -38L32.9 -19L32.9 19L0 38L-32.9 19L-32.9 -19Z" fill="none" stroke="#297EA6" stroke-width="2"></path></g><g transform="translate(158 48)"><path d="M0 -40L34.6 -20L34.6 20L0 40L-34.6 20L-34.6 -20Z" fill="none" stroke="#297EA6" stroke-width="2"></path></g><g transform="translate(590 31)"><path d="M0 -26L22.5 -13L22.5 13L0 26L-22.5 13L-22.5 -13Z" fill="none" stroke="#297EA6" stroke-width="2"></path></g><g transform="translate(906 300)"><path d="M0 -41L35.5 -20.5L35.5 20.5L0 41L-35.5 20.5L-35.5 -20.5Z" fill="none" stroke="#297EA6" stroke-width="2"></path></g><g transform="translate(222 365)"><path d="M0 -37L32 -18.5L32 18.5L0 37L-32 18.5L-32 -18.5Z" fill="none" stroke="#297EA6" stroke-width="2"></path></g><g transform="translate(671 2)"><path d="M0 -38L32.9 -19L32.9 19L0 38L-32.9 19L-32.9 -19Z" fill="none" stroke="#297EA6" stroke-width="2"></path></g><g transform="translate(878 190)"><path d="M0 -36L31.2 -18L31.2 18L0 36L-31.2 18L-31.2 -18Z" fill="none" stroke="#297EA6" stroke-width="2"></path></g><g transform="translate(86 199)"><path d="M0 -22L19.1 -11L19.1 11L0 22L-19.1 11L-19.1 -11Z" fill="none" stroke="#297EA6" stroke-width="2"></path></g><g transform="translate(194 198)"><path d="M0 -22L19.1 -11L19.1 11L0 22L-19.1 11L-19.1 -11Z" fill="none" stroke="#297EA6" stroke-width="2"></path></g><g transform="translate(681 193)"><path d="M0 -39L33.8 -19.5L33.8 19.5L0 39L-33.8 19.5L-33.8 -19.5Z" fill="none" stroke="#297EA6" stroke-width="2"></path></g><g transform="translate(889 5)"><path d="M0 -31L26.8 -15.5L26.8 15.5L0 31L-26.8 15.5L-26.8 -15.5Z" fill="none" stroke="#297EA6" stroke-width="2"></path></g><g transform="translate(958 443)"><path d="M0 -38L32.9 -19L32.9 19L0 38L-32.9 19L-32.9 -19Z" fill="none" stroke="#297EA6" stroke-width="2"></path></g></g></svg>