<svg id="visual" viewBox="0 0 900 600" width="900" height="600" xmlns="http://www.w3.org/2000/svg" xmlns:xlink="http://www.w3.org/1999/xlink" version="1.1"><g stroke-width="2" stroke-linejoin="bevel"><path d="M405 287L314 318L376 364Z" fill="#6e99b8" stroke="#FFFFFF"></path><path d="M314 318L312 370L376 364Z" fill="#588fb1" stroke="#FFFFFF"></path><path d="M405 287L294 186L314 318Z" fill="#508caf" stroke="#FFFFFF"></path><path d="M413 180L294 186L405 287Z" fill="#7ba0bc" stroke="#FFFFFF"></path><path d="M314 318L214 368L312 370Z" fill="#6092b3" stroke="#FFFFFF"></path><path d="M429 486L477 420L376 364Z" fill="#6e99b8" stroke="#FFFFFF"></path><path d="M376 364L477 420L405 287Z" fill="#3581a8" stroke="#FFFFFF"></path><path d="M405 287L534 265L413 180Z" fill="#6e99b8" stroke="#FFFFFF"></path><path d="M171 289L214 368L314 318Z" fill="#6796b5" stroke="#FFFFFF"></path><path d="M312 370L429 486L376 364Z" fill="#6796b5" stroke="#FFFFFF"></path><path d="M477 420L534 265L405 287Z" fill="#7ba0bc" stroke="#FFFFFF"></path><path d="M287 510L429 486L312 370Z" fill="#749dba" stroke="#FFFFFF"></path><path d="M294 186L171 289L314 318Z" fill="#749dba" stroke="#FFFFFF"></path><path d="M534 265L534 206L413 180Z" fill="#6e99b8" stroke="#FFFFFF"></path><path d="M534 206L467 138L413 180Z" fill="#4888ad" stroke="#FFFFFF"></path><path d="M413 180L277 125L294 186Z" fill="#6092b3" stroke="#FFFFFF"></path><path d="M429 486L493 480L477 420Z" fill="#508caf" stroke="#FFFFFF"></path><path d="M477 420L628 321L534 265Z" fill="#6e99b8" stroke="#FFFFFF"></path><path d="M188 471L287 510L214 368Z" fill="#3f85aa" stroke="#FFFFFF"></path><path d="M214 368L287 510L312 370Z" fill="#6796b5" stroke="#FFFFFF"></path><path d="M472 600L563 490L493 480Z" fill="#588fb1" stroke="#FFFFFF"></path><path d="M429 86L277 125L413 180Z" fill="#3581a8" stroke="#FFFFFF"></path><path d="M294 186L184 180L171 289Z" fill="#3f85aa" stroke="#FFFFFF"></path><path d="M277 125L184 180L294 186Z" fill="#508caf" stroke="#FFFFFF"></path><path d="M184 180L133 289L171 289Z" fill="#6796b5" stroke="#FFFFFF"></path><path d="M171 289L133 289L214 368Z" fill="#297ea6" stroke="#FFFFFF"></path><path d="M75 398L188 471L214 368Z" fill="#6e99b8" stroke="#FFFFFF"></path><path d="M568 94L429 86L467 138Z" fill="#588fb1" stroke="#FFFFFF"></path><path d="M467 138L429 86L413 180Z" fill="#4888ad" stroke="#FFFFFF"></path><path d="M619 415L628 321L477 420Z" fill="#6e99b8" stroke="#FFFFFF"></path><path d="M534 265L622 224L534 206Z" fill="#4888ad" stroke="#FFFFFF"></path><path d="M472 600L493 480L429 486Z" fill="#6796b5" stroke="#FFFFFF"></path><path d="M493 480L563 490L477 420Z" fill="#749dba" stroke="#FFFFFF"></path><path d="M563 490L619 415L477 420Z" fill="#749dba" stroke="#FFFFFF"></path><path d="M628 321L622 224L534 265Z" fill="#4888ad" stroke="#FFFFFF"></path><path d="M534 206L568 94L467 138Z" fill="#3f85aa" stroke="#FFFFFF"></path><path d="M274 0L228 68L277 125Z" fill="#6796b5" stroke="#FFFFFF"></path><path d="M277 125L228 68L184 180Z" fill="#6796b5" stroke="#FFFFFF"></path><path d="M184 180L102 174L133 289Z" fill="#7ba0bc" stroke="#FFFFFF"></path><path d="M289 600L412 600L287 510Z" fill="#6092b3" stroke="#FFFFFF"></path><path d="M287 510L412 600L429 486Z" fill="#3f85aa" stroke="#FFFFFF"></path><path d="M75 398L138 503L188 471Z" fill="#3f85aa" stroke="#FFFFFF"></path><path d="M213 600L289 600L287 510Z" fill="#6796b5" stroke="#FFFFFF"></path><path d="M213 600L287 510L188 471Z" fill="#7ba0bc" stroke="#FFFFFF"></path><path d="M125 102L102 174L184 180Z" fill="#6796b5" stroke="#FFFFFF"></path><path d="M133 289L75 398L214 368Z" fill="#508caf" stroke="#FFFFFF"></path><path d="M0 329L75 398L133 289Z" fill="#6796b5" stroke="#FFFFFF"></path><path d="M622 224L568 94L534 206Z" fill="#3581a8" stroke="#FFFFFF"></path><path d="M429 86L365 0L277 125Z" fill="#6092b3" stroke="#FFFFFF"></path><path d="M412 600L472 600L429 486Z" fill="#297ea6" stroke="#FFFFFF"></path><path d="M481 0L365 0L429 86Z" fill="#3581a8" stroke="#FFFFFF"></path><path d="M238 0L125 102L228 68Z" fill="#6e99b8" stroke="#FFFFFF"></path><path d="M228 68L125 102L184 180Z" fill="#7ba0bc" stroke="#FFFFFF"></path><path d="M138 503L213 600L188 471Z" fill="#3581a8" stroke="#FFFFFF"></path><path d="M365 0L274 0L277 125Z" fill="#6092b3" stroke="#FFFFFF"></path><path d="M707 284L690 233L628 321Z" fill="#6e99b8" stroke="#FFFFFF"></path><path d="M628 321L690 233L622 224Z" fill="#3581a8" stroke="#FFFFFF"></path><path d="M622 224L680 60L568 94Z" fill="#3f85aa" stroke="#FFFFFF"></path><path d="M568 94L481 0L429 86Z" fill="#6092b3" stroke="#FFFFFF"></path><path d="M274 0L238 0L228 68Z" fill="#3581a8" stroke="#FFFFFF"></path><path d="M729 380L707 284L628 321Z" fill="#6e99b8" stroke="#FFFFFF"></path><path d="M563 490L671 533L619 415Z" fill="#749dba" stroke="#FFFFFF"></path><path d="M619 415L729 380L628 321Z" fill="#588fb1" stroke="#FFFFFF"></path><path d="M472 600L588 600L563 490Z" fill="#6092b3" stroke="#FFFFFF"></path><path d="M0 189L0 329L133 289Z" fill="#749dba" stroke="#FFFFFF"></path><path d="M0 500L84 600L138 503Z" fill="#3581a8" stroke="#FFFFFF"></path><path d="M138 503L84 600L213 600Z" fill="#297ea6" stroke="#FFFFFF"></path><path d="M0 189L133 289L102 174Z" fill="#3581a8" stroke="#FFFFFF"></path><path d="M0 329L0 372L75 398Z" fill="#4888ad" stroke="#FFFFFF"></path><path d="M671 533L729 380L619 415Z" fill="#508caf" stroke="#FFFFFF"></path><path d="M588 600L671 533L563 490Z" fill="#3f85aa" stroke="#FFFFFF"></path><path d="M680 60L585 0L568 94Z" fill="#6092b3" stroke="#FFFFFF"></path><path d="M568 94L585 0L481 0Z" fill="#7ba0bc" stroke="#FFFFFF"></path><path d="M0 93L102 174L125 102Z" fill="#3f85aa" stroke="#FFFFFF"></path><path d="M0 93L0 189L102 174Z" fill="#6092b3" stroke="#FFFFFF"></path><path d="M0 500L138 503L75 398Z" fill="#6796b5" stroke="#FFFFFF"></path><path d="M707 284L818 221L690 233Z" fill="#297ea6" stroke="#FFFFFF"></path><path d="M690 233L680 60L622 224Z" fill="#508caf" stroke="#FFFFFF"></path><path d="M729 380L764 311L707 284Z" fill="#297ea6" stroke="#FFFFFF"></path><path d="M813 438L764 311L729 380Z" fill="#7ba0bc" stroke="#FFFFFF"></path><path d="M780 132L680 60L690 233Z" fill="#6092b3" stroke="#FFFFFF"></path><path d="M0 372L0 500L75 398Z" fill="#6e99b8" stroke="#FFFFFF"></path><path d="M72 0L0 93L125 102Z" fill="#6092b3" stroke="#FFFFFF"></path><path d="M238 0L72 0L125 102Z" fill="#749dba" stroke="#FFFFFF"></path><path d="M588 600L714 600L671 533Z" fill="#6092b3" stroke="#FFFFFF"></path><path d="M671 533L813 438L729 380Z" fill="#6092b3" stroke="#FFFFFF"></path><path d="M818 221L780 132L690 233Z" fill="#3581a8" stroke="#FFFFFF"></path><path d="M808 0L699 0L680 60Z" fill="#6092b3" stroke="#FFFFFF"></path><path d="M680 60L699 0L585 0Z" fill="#297ea6" stroke="#FFFFFF"></path><path d="M0 500L0 600L84 600Z" fill="#6092b3" stroke="#FFFFFF"></path><path d="M900 328L818 221L764 311Z" fill="#588fb1" stroke="#FFFFFF"></path><path d="M764 311L818 221L707 284Z" fill="#4888ad" stroke="#FFFFFF"></path><path d="M833 535L813 438L671 533Z" fill="#3581a8" stroke="#FFFFFF"></path><path d="M72 0L0 0L0 93Z" fill="#3f85aa" stroke="#FFFFFF"></path><path d="M714 600L833 535L671 533Z" fill="#297ea6" stroke="#FFFFFF"></path><path d="M900 364L900 328L764 311Z" fill="#297ea6" stroke="#FFFFFF"></path><path d="M900 364L764 311L813 438Z" fill="#3581a8" stroke="#FFFFFF"></path><path d="M900 88L808 0L780 132Z" fill="#297ea6" stroke="#FFFFFF"></path><path d="M900 478L900 364L813 438Z" fill="#749dba" stroke="#FFFFFF"></path><path d="M714 600L825 600L833 535Z" fill="#3f85aa" stroke="#FFFFFF"></path><path d="M833 535L900 478L813 438Z" fill="#297ea6" stroke="#FFFFFF"></path><path d="M900 187L780 132L818 221Z" fill="#3f85aa" stroke="#FFFFFF"></path><path d="M780 132L808 0L680 60Z" fill="#3f85aa" stroke="#FFFFFF"></path><path d="M900 328L900 187L818 221Z" fill="#4888ad" stroke="#FFFFFF"></path><path d="M900 600L900 478L833 535Z" fill="#7ba0bc" stroke="#FFFFFF"></path><path d="M900 187L900 88L780 132Z" fill="#4888ad" stroke="#FFFFFF"></path><path d="M825 600L900 600L833 535Z" fill="#6796b5" stroke="#FFFFFF"></path><path d="M900 88L900 0L808 0Z" fill="#6796b5" stroke="#FFFFFF"></path></g></svg>