<svg id="visual" viewBox="0 0 960 540" width="960" height="540" xmlns="http://www.w3.org/2000/svg" xmlns:xlink="http://www.w3.org/1999/xlink" version="1.1"><g stroke-width="1" stroke-linejoin="bevel"><path d="M503.3 314L462.7 340L482.3 370Z" fill="#19284a" stroke="#0D97E0"></path><path d="M503.3 314L430.7 319L462.7 340Z" fill="#1f4b7a" stroke="#0D97E0"></path><path d="M462.7 340L344 390L482.3 370Z" fill="#0474ac" stroke="#0D97E0"></path><path d="M482.3 370L584 364L503.3 314Z" fill="#1f4b7a" stroke="#0D97E0"></path><path d="M584 364L591 323L503.3 314Z" fill="#16203e" stroke="#0D97E0"></path><path d="M392.7 493L481.3 485L482.3 370Z" fill="#1f426e" stroke="#0D97E0"></path><path d="M482.3 370L481.3 485L584 364Z" fill="#0474ac" stroke="#0D97E0"></path><path d="M430.7 319L344 390L462.7 340Z" fill="#0474ac" stroke="#0D97E0"></path><path d="M616 540L656 391L584 364Z" fill="#1d5587" stroke="#0D97E0"></path><path d="M584 364L656 391L591 323Z" fill="#121833" stroke="#0D97E0"></path><path d="M344 390L392.7 493L482.3 370Z" fill="#1e3962" stroke="#0D97E0"></path><path d="M436.7 540L481.3 540L481.3 485Z" fill="#1e3962" stroke="#0D97E0"></path><path d="M481.3 485L616 540L584 364Z" fill="#1f426e" stroke="#0D97E0"></path><path d="M717.7 228L585 162L591 323Z" fill="#136aa0" stroke="#0D97E0"></path><path d="M591 323L585 162L503.3 314Z" fill="#1f4b7a" stroke="#0D97E0"></path><path d="M503.3 314L399.7 158L430.7 319Z" fill="#19284a" stroke="#0D97E0"></path><path d="M430.7 319L289 233L344 390Z" fill="#1d5587" stroke="#0D97E0"></path><path d="M392.7 493L436.7 540L481.3 485Z" fill="#1f426e" stroke="#0D97E0"></path><path d="M500.3 124L399.7 158L503.3 314Z" fill="#1c3056" stroke="#0D97E0"></path><path d="M226.3 411L314 462L344 390Z" fill="#19284a" stroke="#0D97E0"></path><path d="M344 390L314 462L392.7 493Z" fill="#1a5f93" stroke="#0D97E0"></path><path d="M392.7 493L338 540L436.7 540Z" fill="#1c3056" stroke="#0D97E0"></path><path d="M585 162L500.3 124L503.3 314Z" fill="#0474ac" stroke="#0D97E0"></path><path d="M399.7 158L289 233L430.7 319Z" fill="#19284a" stroke="#0D97E0"></path><path d="M481.3 540L616 540L481.3 485Z" fill="#0474ac" stroke="#0D97E0"></path><path d="M417.7 81L355 153L399.7 158Z" fill="#1a5f93" stroke="#0D97E0"></path><path d="M399.7 158L355 153L289 233Z" fill="#1a5f93" stroke="#0D97E0"></path><path d="M697.7 540L733.7 409L656 391Z" fill="#16203e" stroke="#0D97E0"></path><path d="M656 391L717.7 228L591 323Z" fill="#1a5f93" stroke="#0D97E0"></path><path d="M314 462L338 540L392.7 493Z" fill="#121833" stroke="#0D97E0"></path><path d="M766.7 299L717.7 228L656 391Z" fill="#1a5f93" stroke="#0D97E0"></path><path d="M500.3 124L417.7 81L399.7 158Z" fill="#136aa0" stroke="#0D97E0"></path><path d="M552.3 0L417.7 81L500.3 124Z" fill="#136aa0" stroke="#0D97E0"></path><path d="M201.3 325L226.3 411L344 390Z" fill="#1e3962" stroke="#0D97E0"></path><path d="M314 462L184.3 540L338 540Z" fill="#136aa0" stroke="#0D97E0"></path><path d="M683 54L563.3 76L585 162Z" fill="#1f426e" stroke="#0D97E0"></path><path d="M585 162L563.3 76L500.3 124Z" fill="#1f426e" stroke="#0D97E0"></path><path d="M733.7 409L766.7 299L656 391Z" fill="#0474ac" stroke="#0D97E0"></path><path d="M355 153L245.3 211L289 233Z" fill="#136aa0" stroke="#0D97E0"></path><path d="M289 233L201.3 325L344 390Z" fill="#1f426e" stroke="#0D97E0"></path><path d="M208.3 95L245.3 211L355 153Z" fill="#1f426e" stroke="#0D97E0"></path><path d="M616 540L697.7 540L656 391Z" fill="#136aa0" stroke="#0D97E0"></path><path d="M733.7 409L801.7 310L766.7 299Z" fill="#1f4b7a" stroke="#0D97E0"></path><path d="M245.3 211L201.3 325L289 233Z" fill="#1e3962" stroke="#0D97E0"></path><path d="M809.3 402L801.7 310L733.7 409Z" fill="#1c3056" stroke="#0D97E0"></path><path d="M766.7 299L821.3 263L717.7 228Z" fill="#1a5f93" stroke="#0D97E0"></path><path d="M717.7 228L683 54L585 162Z" fill="#0474ac" stroke="#0D97E0"></path><path d="M245.3 211L172.3 307L201.3 325Z" fill="#1d5587" stroke="#0D97E0"></path><path d="M201.3 325L160.7 413L226.3 411Z" fill="#0474ac" stroke="#0D97E0"></path><path d="M800.3 500L809.3 402L733.7 409Z" fill="#16203e" stroke="#0D97E0"></path><path d="M960 270L821.3 263L801.7 310Z" fill="#16203e" stroke="#0D97E0"></path><path d="M801.7 310L821.3 263L766.7 299Z" fill="#19284a" stroke="#0D97E0"></path><path d="M138.7 359L160.7 413L201.3 325Z" fill="#1f4b7a" stroke="#0D97E0"></path><path d="M226.3 411L184.3 540L314 462Z" fill="#1e3962" stroke="#0D97E0"></path><path d="M757.7 85L683 54L717.7 228Z" fill="#19284a" stroke="#0D97E0"></path><path d="M563.3 76L552.3 0L500.3 124Z" fill="#136aa0" stroke="#0D97E0"></path><path d="M697.7 540L800.3 500L733.7 409Z" fill="#1f4b7a" stroke="#0D97E0"></path><path d="M660 0L552.3 0L563.3 76Z" fill="#1f426e" stroke="#0D97E0"></path><path d="M552.3 0L404.7 0L417.7 81Z" fill="#16203e" stroke="#0D97E0"></path><path d="M417.7 81L324 31L355 153Z" fill="#19284a" stroke="#0D97E0"></path><path d="M245.3 211L69.7 222L172.3 307Z" fill="#136aa0" stroke="#0D97E0"></path><path d="M374 0L324 31L417.7 81Z" fill="#1d5587" stroke="#0D97E0"></path><path d="M172.3 307L138.7 359L201.3 325Z" fill="#0474ac" stroke="#0D97E0"></path><path d="M62.7 225L138.7 359L172.3 307Z" fill="#1a5f93" stroke="#0D97E0"></path><path d="M404.7 0L374 0L417.7 81Z" fill="#121833" stroke="#0D97E0"></path><path d="M61.7 540L184.3 540L160.7 413Z" fill="#19284a" stroke="#0D97E0"></path><path d="M160.7 413L184.3 540L226.3 411Z" fill="#1a5f93" stroke="#0D97E0"></path><path d="M865.3 145L757.7 85L717.7 228Z" fill="#1f4b7a" stroke="#0D97E0"></path><path d="M268.3 0L208.3 95L324 31Z" fill="#136aa0" stroke="#0D97E0"></path><path d="M324 31L208.3 95L355 153Z" fill="#0474ac" stroke="#0D97E0"></path><path d="M683 54L660 0L563.3 76Z" fill="#0474ac" stroke="#0D97E0"></path><path d="M704.7 0L660 0L683 54Z" fill="#1f4b7a" stroke="#0D97E0"></path><path d="M757.7 85L704.7 0L683 54Z" fill="#16203e" stroke="#0D97E0"></path><path d="M374 0L268.3 0L324 31Z" fill="#1f4b7a" stroke="#0D97E0"></path><path d="M697.7 540L859.3 540L800.3 500Z" fill="#16203e" stroke="#0D97E0"></path><path d="M800.3 500L859.3 540L809.3 402Z" fill="#0474ac" stroke="#0D97E0"></path><path d="M809.3 402L960 388L801.7 310Z" fill="#19284a" stroke="#0D97E0"></path><path d="M821.3 263L865.3 145L717.7 228Z" fill="#1c3056" stroke="#0D97E0"></path><path d="M757.7 85L888.3 0L704.7 0Z" fill="#16203e" stroke="#0D97E0"></path><path d="M882.3 138L865.3 145L960 172Z" fill="#19284a" stroke="#0D97E0"></path><path d="M62.7 225L69.7 222L0 133Z" fill="#121833" stroke="#0D97E0"></path><path d="M100.7 128L69.7 222L245.3 211Z" fill="#1c3056" stroke="#0D97E0"></path><path d="M0 471L61.7 540L160.7 413Z" fill="#1c3056" stroke="#0D97E0"></path><path d="M960 270L865.3 145L821.3 263Z" fill="#19284a" stroke="#0D97E0"></path><path d="M865.3 145L888.3 0L757.7 85Z" fill="#1d5587" stroke="#0D97E0"></path><path d="M100.7 128L245.3 211L208.3 95Z" fill="#1f4b7a" stroke="#0D97E0"></path><path d="M69.7 222L62.7 225L172.3 307Z" fill="#1e3962" stroke="#0D97E0"></path><path d="M95.7 0L100.7 128L208.3 95Z" fill="#1a5f93" stroke="#0D97E0"></path><path d="M960 486L960 388L809.3 402Z" fill="#1f4b7a" stroke="#0D97E0"></path><path d="M960 388L960 270L801.7 310Z" fill="#1d5587" stroke="#0D97E0"></path><path d="M0 395L160.7 413L138.7 359Z" fill="#16203e" stroke="#0D97E0"></path><path d="M859.3 540L960 486L809.3 402Z" fill="#1c3056" stroke="#0D97E0"></path><path d="M0 133L0 295L62.7 225Z" fill="#19284a" stroke="#0D97E0"></path><path d="M62.7 225L0 295L138.7 359Z" fill="#16203e" stroke="#0D97E0"></path><path d="M0 295L0 395L138.7 359Z" fill="#1f4b7a" stroke="#0D97E0"></path><path d="M960 270L960 172L865.3 145Z" fill="#1f426e" stroke="#0D97E0"></path><path d="M882.3 138L888.3 0L865.3 145Z" fill="#121833" stroke="#0D97E0"></path><path d="M859.3 540L960 540L960 486Z" fill="#1a5f93" stroke="#0D97E0"></path><path d="M0 395L0 471L160.7 413Z" fill="#1d5587" stroke="#0D97E0"></path><path d="M960 172L960 125L882.3 138Z" fill="#1a5f93" stroke="#0D97E0"></path><path d="M960 125L888.3 0L882.3 138Z" fill="#1d5587" stroke="#0D97E0"></path><path d="M268.3 0L95.7 0L208.3 95Z" fill="#1a5f93" stroke="#0D97E0"></path><path d="M100.7 128L0 133L69.7 222Z" fill="#19284a" stroke="#0D97E0"></path><path d="M0 471L0 540L61.7 540Z" fill="#1e3962" stroke="#0D97E0"></path><path d="M0 34L0 133L100.7 128Z" fill="#1f4b7a" stroke="#0D97E0"></path><path d="M960 125L960 0L888.3 0Z" fill="#1f4b7a" stroke="#0D97E0"></path><path d="M95.7 0L0 34L100.7 128Z" fill="#1a5f93" stroke="#0D97E0"></path><path d="M95.7 0L0 0L0 34Z" fill="#19284a" stroke="#0D97E0"></path></g></svg>