<svg version="1.0" xmlns="http://www.w3.org/2000/svg" width="400.000000pt" height="180.000000pt" viewBox="0 0 300.000000 134.000000" preserveAspectRatio="xMidYMid meet">
  <g transform="translate(0.000000,134.000000) scale(0.125000,-0.125000)" stroke="none">
    <!-- Relleno de las letras - AZUL OSCURO -->
    <path d="M120 1234 c-11 -26 -20 -49 -20 -53 0 -3 101 -5 225 -3 124 2 225 1 225 -1 0 -3 -50 -126 -111 -274 -258 -625 -319 -773 -319 -778 0 -3 50 -4 111 -3 l112 3 174 420 c96 231 193 467 217 525 l42 105 1032 0 1031 0 18 45 c10 25 20 48 21 52 2 5 -613 8 -1367 8 l-1370 0 -21 -46z" fill="#13152e"/>
    <path d="M1087 1039 c-91 -21 -164 -75 -202 -149 -56 -113 -265 -630 -271 -673 -5 -35 -2 -58 11 -87 32 -70 35 -71 446 -68 l362 3 39 95 c22 52 71 171 110 263 39 92 69 169 67 170 -2 1 -115 1 -251 -1 -186 -2 -248 -6 -248 -15 0 -10 -29 -82 -77 -194 -4 -10 13 -13 65 -13 l71 0 -16 -43 -16 -43 -69 2 c-71 2 -98 14 -98 44 0 16 151 385 184 448 8 16 23 33 33 36 10 4 132 7 271 6 233 0 253 1 259 17 7 20 71 181 80 201 4 9 -70 12 -353 11 -198 -1 -376 -5 -397 -10z" fill="#13152e"/>
    <path d="M1099 983 c-49 -8 -132 -66 -156 -109 -49 -88 -273 -644 -273 -676 0 -18 7 -44 16 -56 l15 -22 347 0 347 0 83 203 c45 111 82 204 82 207 0 3 -82 4 -182 3 l-181 -2 -19 -48 c-10 -26 -18 -50 -18 -53 0 -3 30 -3 66 -2 77 4 75 15 22 -115 l-33 -82 -99 -1 -98 0 -34 34 c-22 22 -34 44 -34 61 0 24 145 388 191 477 36 71 43 72 322 78 l249 5 19 50 c10 28 19 51 19 53 0 4 -623 -1 -651 -5z" fill="#13152e"/>
    <path d="M1951 837 c-46 -111 -101 -242 -122 -292 -21 -49 -74 -174 -117 -277 l-80 -188 394 0 c367 0 395 1 401 18 3 9 23 58 44 109 22 51 39 95 39 98 0 3 -96 5 -212 5 -117 -1 -212 2 -211 7 1 4 68 163 148 353 81 190 149 351 152 358 4 9 -34 12 -173 12 l-179 -1 -84 -202z" fill="#13152e"/>
    <path d="M1921 613 c-85 -203 -165 -392 -178 -420 l-23 -53 329 0 330 0 24 53 23 52 -214 3 c-198 2 -214 4 -209 20 3 9 71 172 151 361 80 189 146 345 146 347 0 2 -51 4 -113 4 l-112 0 -154 -367z" fill="#13152e"/>
    
    <!-- Contornos de las letras - AZUL CLARO -->
    <path d="M57 1232 c-26 -59 -47 -110 -47 -113 0 -2 104 -3 230 -1 l231 3 -14 -28 c-8 -15 -99 -233 -202 -483 -103 -250 -193 -466 -200 -480 -7 -14 -16 -35 -19 -48 l-7 -22 177 2 178 3 21 55 c33 82 303 739 324 785 10 22 33 79 52 127 l34 88 1033 2 1033 3 40 95 c22 52 43 101 46 108 3 7 -3 12 -15 12 -16 0 -23 -10 -31 -47 -7 -27 -24 -70 -39 -98 l-27 -50 -1023 -5 -1023 -5 -19 -25 c-11 -14 -20 -30 -20 -36 0 -12 -39 -111 -75 -189 -12 -27 -26 -61 -30 -75 -4 -14 -16 -41 -26 -60 -11 -19 -19 -39 -19 -43 0 -5 -7 -25 -16 -45 -32 -73 -43 -98 -74 -177 -17 -44 -38 -93 -46 -110 -7 -16 -33 -79 -57 -138 -62 -154 -52 -147 -206 -147 -124 0 -129 1 -134 22 -4 12 0 36 8 52 7 17 26 60 40 96 15 36 34 81 42 100 8 19 19 45 24 58 5 12 13 32 18 45 5 12 18 43 30 69 12 26 21 51 21 54 0 3 6 20 14 37 62 138 178 425 187 465 6 26 3 34 -11 42 -10 6 -102 10 -203 10 -202 0 -204 1 -188 57 5 15 18 48 30 73 11 25 21 51 21 58 0 32 -19 3 -63 -96z" fill="none" stroke="#0093e0" stroke-width="9"/>
    <path d="M120 1234 c-11 -26 -20 -49 -20 -53 0 -3 101 -5 225 -3 124 2 225 1 225 -1 0 -3 -50 -126 -111 -274 -258 -625 -319 -773 -319 -778 0 -3 50 -4 111 -3 l112 3 174 420 c96 231 193 467 217 525 l42 105 1032 0 1031 0 18 45 c10 25 20 48 21 52 2 5 -613 8 -1367 8 l-1370 0 -21 -46z m2588 16 c100 0 122 -3 122 -15 0 -8 -9 -19 -19 -25 -13 -7 -351 -10 -1025 -10 -964 0 -1007 -1 -1024 -18 -11 -11 -34 -54 -52 -98 -18 -43 -41 -97 -51 -119 -19 -42 -111 -269 -161 -395 -16 -41 -33 -79 -39 -84 -5 -6 -9 -16 -9 -24 0 -7 -11 -37 -24 -65 -13 -29 -29 -68 -36 -87 -24 -64 -63 -145 -74 -152 -6 -4 -42 -8 -80 -8 l-68 0 5 29 c6 26 93 239 138 337 10 22 19 44 19 48 0 4 11 32 25 62 14 30 25 57 25 59 0 6 73 182 95 230 7 17 32 77 55 134 36 91 40 108 29 128 -12 23 -14 23 -211 23 -190 0 -198 1 -198 20 0 10 6 23 14 27 8 4 556 7 1218 5 662 -1 1258 -2 1326 -2z" fill="none" stroke="#0093e0" stroke-width="9"/>
    <path d="M1087 1039 c-91 -21 -164 -75 -202 -149 -56 -113 -265 -630 -271 -673 -5 -35 -2 -58 11 -87 32 -70 35 -71 446 -68 l362 3 39 95 c22 52 71 171 110 263 39 92 69 169 67 170 -2 1 -115 1 -251 -1 -186 -2 -248 -6 -248 -15 0 -10 -29 -82 -77 -194 -4 -10 13 -13 65 -13 l71 0 -16 -43 -16 -43 -69 2 c-71 2 -98 14 -98 44 0 16 151 385 184 448 8 16 23 33 33 36 10 4 132 7 271 6 233 0 253 1 259 17 7 20 71 181 80 201 4 9 -70 12 -353 11 -198 -1 -376 -5 -397 -10z m691 -43 c4 -31 -12 -77 -40 -118 l-18 -27 -243 -3 c-213 -3 -245 -5 -268 -21 -18 -12 -43 -54 -73 -121 -25 -57 -46 -106 -46 -109 0 -4 -13 -35 -29 -71 -17 -35 -40 -93 -53 -129 -19 -54 -20 -69 -10 -91 16 -35 55 -49 125 -44 62 5 81 19 92 71 8 35 -6 53 -50 61 -30 6 -35 11 -35 35 0 33 25 98 48 124 13 15 37 17 215 17 l200 0 -5 -43 c-3 -23 -12 -58 -20 -77 -29 -66 -66 -155 -93 -224 -16 -38 -37 -85 -47 -103 l-20 -33 -358 0 -358 0 -26 31 c-42 49 -33 128 32 269 11 25 35 81 52 125 17 44 42 103 54 130 12 28 37 87 55 133 58 144 117 204 230 234 57 15 108 17 376 15 l310 -2 3 -29z" fill="none" stroke="#0093e0" stroke-width="9"/>
    <path d="M1099 983 c-49 -8 -132 -66 -156 -109 -49 -88 -273 -644 -273 -676 0 -18 7 -44 16 -56 l15 -22 347 0 347 0 83 203 c45 111 82 204 82 207 0 3 -82 4 -182 3 l-181 -2 -19 -48 c-10 -26 -18 -50 -18 -53 0 -3 30 -3 66 -2 77 4 75 15 22 -115 l-33 -82 -99 -1 -98 0 -34 34 c-22 22 -34 44 -34 61 0 24 145 388 191 477 36 71 43 72 322 78 l249 5 19 50 c10 28 19 51 19 53 0 4 -623 -1 -651 -5z m596 -33 c4 -6 2 -17 -5 -25 -9 -11 -60 -14 -244 -17 -309 -4 -290 9 -406 -268 -28 -69 -58 -138 -66 -155 -7 -16 -23 -57 -34 -89 -25 -75 -14 -124 39 -164 30 -24 45 -27 128 -30 87 -4 97 -2 119 19 30 28 87 173 79 200 -4 10 -18 22 -33 25 -56 12 -63 16 -60 32 4 23 60 31 186 30 72 0 105 -4 108 -13 3 -7 -4 -34 -14 -61 -11 -27 -34 -85 -52 -129 -17 -44 -41 -96 -52 -117 l-22 -38 -321 0 c-236 0 -324 3 -333 12 -24 24 -10 73 88 311 108 260 104 250 148 348 31 69 65 102 131 125 46 17 606 20 616 4z" fill="none" stroke="#0093e0" stroke-width="9"/>
    <path d="M1951 837 c-46 -111 -101 -242 -122 -292 -21 -49 -74 -174 -117 -277 l-80 -188 394 0 c367 0 395 1 401 18 3 9 23 58 44 109 22 51 39 95 39 98 0 3 -96 5 -212 5 -117 -1 -212 2 -211 7 1 4 68 163 148 353 81 190 149 351 152 358 4 9 -34 12 -173 12 l-179 -1 -84 -202z m379 162 c11 -17 -11 -82 -86 -247 -13 -29 -24 -55 -24 -58 0 -3 -7 -20 -15 -37 -30 -64 -127 -303 -131 -322 -10 -46 4 -50 195 -53 151 -3 181 -6 186 -19 7 -21 -23 -102 -49 -131 l-20 -22 -345 2 c-326 3 -346 4 -349 21 -4 18 5 43 70 192 17 39 34 79 38 90 4 11 12 31 18 45 37 82 116 271 129 305 8 21 25 62 37 90 12 27 28 66 36 85 28 73 36 76 204 73 65 -1 102 -6 106 -14z" fill="none" stroke="#0093e0" stroke-width="9"/>
    <path d="M1921 613 c-85 -203 -165 -392 -178 -420 l-23 -53 329 0 330 0 24 53 23 52 -214 3 c-198 2 -214 4 -209 20 3 9 71 172 151 361 80 189 146 345 146 347 0 2 -51 4 -113 4 l-112 0 -154 -367z m329 327 c0 -8 -93 -239 -135 -335 -53 -121 -127 -304 -132 -326 -3 -16 1 -32 12 -42 14 -15 41 -17 190 -17 175 0 200 -5 175 -35 -10 -13 -60 -15 -296 -15 -180 0 -285 4 -289 10 -4 6 1 25 10 43 9 17 37 82 61 142 25 61 53 128 63 150 10 22 53 123 96 225 43 102 82 191 87 198 13 15 158 17 158 2z" fill="none" stroke="#0093e0" stroke-width="9"/>
  </g>
</svg>